<?xml version="1.0" encoding="UTF-8"?>
<svg version="1.1" xmlns="http://www.w3.org/2000/svg" width="512" height="512">
<path d="M0 0 C168.96 0 337.92 0 512 0 C512 168.96 512 337.92 512 512 C343.04 512 174.08 512 0 512 C0 343.04 0 174.08 0 0 Z " fill="#000054" transform="translate(0,0)"/>
<path d="M0 0 C74.64366883 0 74.64366883 0 89.359375 12.31640625 C98.28466291 21.4754517 100.54243493 31.84276144 100.48999023 44.24145508 C100.14984276 54.19727003 96.64805615 62.146783 89.78125 69.375 C87.33703449 71.60481064 84.8538916 73.32942931 82 75 C84.13923746 77.13923746 85.75384117 77.85019254 88.5 79.0625 C99.24780432 84.40533914 105.63818833 91.87818501 110 103 C113.68179678 115.57974409 111.85174051 131.12174171 105.66796875 142.4375 C96.71392548 155.85723067 78.73749042 160.05250192 64 163 C42.88 163 21.76 163 0 163 C0 109.21 0 55.42 0 0 Z " fill="#FCFC00" transform="translate(356,175)"/>
<path d="M0 0 C66.91118588 0 66.91118588 0 81.5 7.75 C82.16233643 8.09434082 82.82467285 8.43868164 83.50708008 8.79345703 C92.5515438 13.69518857 98.47292672 20.25270059 102 30 C106.19735611 44.78920739 105.62452082 61.73386255 98.71484375 75.57421875 C92.58192078 85.63631243 83.59138037 91.36536305 73 96 C72.27683594 96.31839844 71.55367188 96.63679688 70.80859375 96.96484375 C59.43124832 101.58473553 47.93518329 101.24430322 35.875 101.125 C27.026875 101.063125 27.026875 101.063125 18 101 C18 121.46 18 141.92 18 163 C12.06 163 6.12 163 0 163 C0 109.21 0 55.42 0 0 Z " fill="#FDFD00" transform="translate(45,175)"/>
<path d="M0 0 C15 0 15 0 18.23046875 2.24609375 C19.19919922 3.82583984 19.19919922 3.82583984 20.1875 5.4375 C20.56801514 6.01733643 20.94853027 6.59717285 21.34057617 7.19458008 C22.1632155 8.44963026 22.965588 9.71815807 23.74902344 10.99804688 C25.48526418 13.77657422 27.39214792 16.41896059 29.30175781 19.08007812 C30.83935153 21.22495676 32.355077 23.3839706 33.8671875 25.546875 C37.01802663 30.03904314 40.22046298 34.49257888 43.4375 38.9375 C43.97665039 39.68273926 44.51580078 40.42797852 45.07128906 41.19580078 C46.71344894 43.464407 48.3565484 45.7323294 50 48 C56.88048717 57.49384728 63.73099546 67.00488904 70.47412109 76.59692383 C74.1696058 81.84568026 77.91967286 87.05299705 81.6875 92.25 C85.47069722 97.47683711 89.24491663 102.70860746 92.9375 108 C93.58589844 108.928125 94.23429687 109.85625 94.90234375 110.8125 C97.73806964 115.121536 100.346023 119.576705 103 124 C103.33 83.08 103.66 42.16 104 0 C110.27 0 116.54 0 123 0 C123 53.79 123 107.58 123 163 C108 163 108 163 104.3671875 160.16796875 C103.07592773 158.27709961 103.07592773 158.27709961 101.875 156.1875 C101.16935913 155.11737671 101.16935913 155.11737671 100.44946289 154.02563477 C99.4464555 152.49877415 98.46481527 150.95769393 97.50341797 149.40429688 C95.46647781 146.14678037 93.2833018 142.99962981 91.09790039 139.84057617 C89.43630868 137.43577582 87.79543002 135.01777216 86.15625 132.59765625 C82.90950527 127.83517151 79.52195574 123.18867502 76.09130859 118.55786133 C70.59670104 111.13129169 65.3086303 103.55999709 60 96 C58.02255117 93.18628754 56.04343407 90.37375987 54.0625 87.5625 C53.57088379 86.86471436 53.07926758 86.16692871 52.57275391 85.44799805 C48.90111188 80.24839449 45.17588446 75.08924353 41.4375 69.9375 C37.21062123 64.1035728 33.03235438 58.23997753 28.9375 52.3125 C28.49656006 51.67755615 28.05562012 51.0426123 27.60131836 50.38842773 C26.97688843 49.47879272 26.97688843 49.47879272 26.33984375 48.55078125 C25.80411743 47.77214722 25.80411743 47.77214722 25.25756836 46.9777832 C23.39676469 44.05128921 21.72060507 41.01105888 20 38 C19.67 79.25 19.34 120.5 19 163 C12.73 163 6.46 163 0 163 C0 109.21 0 55.42 0 0 Z " fill="#FCFC00" transform="translate(185,175)"/>
<path d="M0 0 C8.53875 -0.0928125 8.53875 -0.0928125 17.25 -0.1875 C19.02020508 -0.21481201 20.79041016 -0.24212402 22.61425781 -0.27026367 C35.48116524 -0.38615056 48.80110997 0.4843508 58.78125 9.6328125 C65.11200753 16.5531994 66.53911214 23.10490739 66.4375 32.25 C66.43137695 33.18005859 66.42525391 34.11011719 66.41894531 35.06835938 C66.23056264 43.35140057 64.51568178 49.64593538 60.375 56.8125 C54.21281743 62.48819447 46.97659505 65.73262431 39 68 C38.01 68.33 37.02 68.66 36 69 C33.26864749 69.08506322 30.56287685 69.11599182 27.83203125 69.09765625 C27.12735718 69.09664917 26.42268311 69.09564209 25.69665527 69.09460449 C23.06858692 69.08937914 20.4405418 69.07541786 17.8125 69.0625 C11.934375 69.041875 6.05625 69.02125 0 69 C0 46.23 0 23.46 0 0 Z " fill="#020254" transform="translate(63,191)"/>
<path d="M0 0 C6.6825 -0.061875 13.365 -0.12375 20.25 -0.1875 C23.3751709 -0.22846802 23.3751709 -0.22846802 26.56347656 -0.27026367 C40.87256449 -0.38026037 55.92998002 0.28085046 66.875 10.75 C73.1887408 20.40630946 74.62269852 29.19998111 72.4921875 40.75390625 C70.43728259 47.73349708 66.88715889 52.19338517 60.5625 55.6875 C47.25442836 61.60827545 33.88285229 61.38094481 19.625 61.1875 C13.14875 61.125625 6.6725 61.06375 0 61 C0 40.87 0 20.74 0 0 Z " fill="#010154" transform="translate(375,261)"/>
<path d="M0 0 C5.61 -0.103125 11.22 -0.20625 17 -0.3125 C19.60068359 -0.38078003 19.60068359 -0.38078003 22.25390625 -0.45043945 C34.40120418 -0.63527857 47.6201221 0.41499069 57 9 C58.328125 11.03515625 58.328125 11.03515625 59.25 13.0625 C59.56453125 13.73410156 59.8790625 14.40570313 60.203125 15.09765625 C63.27198807 22.42381466 63.08901385 30.9815337 60.4375 38.4375 C57.23931512 45.28916692 52.68920065 48.53767335 45.75 51.25 C35.26665391 54.9614952 24.82776446 55.26685707 13.8125 55.125 C6.9753125 55.063125 6.9753125 55.063125 0 55 C0 36.85 0 18.7 0 0 Z " fill="#010154" transform="translate(375,191)"/>
<path d="M0 0 C0.33 0 0.66 0 1 0 C1 13.53 1 27.06 1 41 C-12.53 41 -26.06 41 -40 41 C-36.77794772 39.38897386 -33.66489916 38.09649079 -30.3125 36.8125 C-17.71232801 31.5611525 -8.22889841 22.19948407 -2.96484375 9.59765625 C-1.78548854 6.42246916 -0.80417774 3.28981803 0 0 Z " fill="#000000" transform="translate(511,471)"/>
<path d="M0 0 C1.61102614 3.22205228 2.90350921 6.33510084 4.1875 9.6875 C9.4388475 22.28767199 18.80051593 31.77110159 31.40234375 37.03515625 C34.57753084 38.21451146 37.71018197 39.19582226 41 40 C41 40.33 41 40.66 41 41 C27.47 41 13.94 41 0 41 C0 27.47 0 13.94 0 0 Z " fill="#000000" transform="translate(0,471)"/>
<path d="M0 0 C13.53 0 27.06 0 41 0 C41 13.53 41 27.06 41 41 C39.38897386 37.77794772 38.09649079 34.66489916 36.8125 31.3125 C31.5611525 18.71232801 22.19948407 9.22889841 9.59765625 3.96484375 C6.42246916 2.78548854 3.28981803 1.80417774 0 1 C0 0.67 0 0.34 0 0 Z " fill="#000000" transform="translate(471,0)"/>
<path d="M0 0 C13.53 0 27.06 0 41 0 C37.77794772 1.61102614 34.66489916 2.90350921 31.3125 4.1875 C18.71232801 9.4388475 9.22889841 18.80051593 3.96484375 31.40234375 C2.78548854 34.57753084 1.80417774 37.71018197 1 41 C0.67 41 0.34 41 0 41 C0 27.47 0 13.94 0 0 Z " fill="#000000" transform="translate(0,0)"/>
</svg>
