<?xml version="1.0" encoding="UTF-8"?>
<svg version="1.1" xmlns="http://www.w3.org/2000/svg" width="500" height="500">
<path d="M0 0 C165 0 330 0 500 0 C500 165 500 330 500 500 C335 500 170 500 0 500 C0 335 0 170 0 0 Z " fill="#5C17EA" transform="translate(0,0)"/>
<path d="M0 0 C1.74878344 -0.00678512 3.49755973 -0.01569325 5.24632263 -0.02655029 C9.97163781 -0.04924403 14.69640399 -0.04054854 19.42172813 -0.02465487 C24.38049104 -0.01194423 29.33920877 -0.02375027 34.29797363 -0.03158569 C42.62337634 -0.04066725 50.94855685 -0.02873359 59.27392578 -0.00488281 C68.88189836 0.02232556 78.48934032 0.01351034 88.09730005 -0.01401484 C96.36515148 -0.03674751 104.63284371 -0.03988569 112.9007163 -0.02682149 C117.83059218 -0.01904982 122.76021912 -0.01792231 127.69007874 -0.03450394 C132.3262354 -0.04901009 136.96171185 -0.03881538 141.59779549 -0.01003265 C143.2932275 -0.00345454 144.98871735 -0.00526309 146.6841259 -0.01634598 C164.76110022 -0.12356757 164.76110022 -0.12356757 171.59179688 5.64697266 C177.0186502 11.82645171 177.31023966 18.46720533 177.22290039 26.3737793 C177.23363335 28.08285713 177.23363335 28.08285713 177.24458313 29.82646179 C177.26140997 33.57043272 177.24210203 37.31319623 177.22070312 41.05712891 C177.22153231 43.6706909 177.22399355 46.28425285 177.22801208 48.89781189 C177.23252022 54.36585232 177.21674186 59.83354925 177.1887207 65.30151367 C177.15665812 71.60637907 177.15669468 77.91062582 177.17393547 84.21553522 C177.1898453 90.30408721 177.18293972 96.39237795 177.16599846 102.48092461 C177.16082512 105.06164482 177.16128811 107.64238284 177.16754341 110.22310066 C177.17300866 113.83230726 177.15257664 117.44047266 177.12524414 121.04956055 C177.13503296 122.64028885 177.13503296 122.64028885 177.14501953 124.26315308 C177.05560658 131.22579332 176.00516838 136.87577674 171.21546268 142.16758823 C165.78719549 147.07325866 160.26379189 147.89605349 153.16653442 147.91439819 C152.07700291 147.92119486 152.07700291 147.92119486 150.96546066 147.92812884 C148.54282621 147.94074227 146.12041746 147.93915448 143.69775391 147.9375 C141.95617383 147.94348712 140.21459641 147.95029309 138.47302246 147.95785522 C133.74983651 147.97550268 129.02672306 147.98021005 124.30350733 147.9814868 C121.3508787 147.98290954 118.39826844 147.98718147 115.44564438 147.99248123 C105.14002057 148.01097662 94.83444845 148.01915237 84.52880859 148.01757812 C74.93005555 148.01637652 65.33152729 148.03748384 55.73283112 148.06906545 C47.48465962 148.09523428 39.23656153 148.10594518 30.98834884 148.10466731 C26.06519214 148.1041579 21.14223529 148.10982963 16.21912003 148.13102341 C11.58807288 148.15041625 6.95741606 148.15052312 2.32635498 148.13599014 C0.63006901 148.13390232 -1.06624147 148.13860139 -2.7624855 148.15071106 C-20.62437587 148.26993612 -20.62437587 148.26993612 -26.94251823 142.16425133 C-30.53243817 138.12253238 -31.52997858 134.97763185 -31.55537415 129.70172119 C-31.56252945 128.68118652 -31.56968475 127.66065186 -31.57705688 126.60919189 C-31.57974579 125.49018494 -31.58243469 124.37117798 -31.58520508 123.21826172 C-31.59177628 122.03913208 -31.59834747 120.86000244 -31.6051178 119.6451416 C-31.62486471 115.73430021 -31.63651866 111.82347224 -31.64648438 107.91259766 C-31.65053295 106.56463348 -31.6546499 105.21666951 -31.65883446 103.86870575 C-31.67788177 97.53462293 -31.69211319 91.20055173 -31.70044643 84.86644578 C-31.7102145 77.56292359 -31.73652433 70.25970483 -31.77694732 62.95628953 C-31.80714337 57.30605767 -31.82191863 51.65591261 -31.82522744 46.00560164 C-31.82757417 42.63336068 -31.83648461 39.26144402 -31.86168861 35.88928986 C-31.88600735 32.12370085 -31.8851277 28.35890504 -31.87817383 24.59326172 C-31.89098389 23.48235168 -31.90379395 22.37144165 -31.91699219 21.22686768 C-31.87679862 15.25431965 -31.82220664 10.05481149 -27.40820312 5.64697266 C-19.39953659 -0.78570916 -9.70525041 -0.06344322 0 0 Z " fill="#3BB371" transform="translate(179.408203125,172.35302734375)"/>
<path d="M0 0 C6.6 0 13.2 0 20 0 C20.71843705 5.08550796 21.43255548 10.17126676 22.13623047 15.25878906 C22.37630154 16.98536734 22.61876488 18.7116149 22.86376953 20.4375 C25.36606418 38.08633733 25.36606418 38.08633733 25 47 C25.66 47 26.32 47 27 47 C27 31.49 27 15.98 27 0 C30.3 0 33.6 0 37 0 C37 17.16 37 34.32 37 52 C30.4 52 23.8 52 17 52 C16.58427734 48.62201172 16.58427734 48.62201172 16.16015625 45.17578125 C15.88920239 42.98472596 15.61760559 40.79375125 15.34594727 38.6027832 C15.15810058 37.0849626 14.97091802 35.56705964 14.78442383 34.04907227 C14.51559976 31.86191961 14.24435582 29.67507833 13.97265625 27.48828125 C13.89032242 26.81412674 13.80798859 26.13997223 13.72315979 25.44538879 C13.28338172 21.92591874 12.70358723 18.4747334 12 15 C11.93540958 13.23022239 11.91388935 11.45829848 11.9375 9.6875 C11.94652344 8.80449219 11.95554688 7.92148438 11.96484375 7.01171875 C11.97644531 6.34785156 11.98804688 5.68398437 12 5 C11.34 5 10.68 5 10 5 C10 20.51 10 36.02 10 52 C6.7 52 3.4 52 0 52 C0 34.84 0 17.68 0 0 Z " fill="#FADD59" transform="translate(233,223)"/>
<path d="M0 0 C25 0 25 0 31 3 C35.56345586 7.81012915 36.42914526 12.14849652 36.34375 18.6171875 C35.75012254 22.73210512 33.88451883 26.03498297 31 29 C26.1205076 32.15014289 22.21816438 32.38317417 16.625 32.1875 C12.850625 32.0946875 12.850625 32.0946875 9 32 C9 38.6 9 45.2 9 52 C6.03 52 3.06 52 0 52 C0 34.84 0 17.68 0 0 Z " fill="#FCDD59" transform="translate(189,223)"/>
<path d="M0 0 C4.54154478 -0.08735463 9.08287232 -0.14051247 13.625 -0.1875 C15.55279297 -0.22520508 15.55279297 -0.22520508 17.51953125 -0.26367188 C19.38544922 -0.27817383 19.38544922 -0.27817383 21.2890625 -0.29296875 C23.00150146 -0.31653442 23.00150146 -0.31653442 24.74853516 -0.34057617 C29.51965884 0.15917736 32.78414185 1.94412319 36.375 5.0625 C38.7518984 9.35920095 38.64803218 13.19507849 38 18 C36.57905405 21.58975819 35.77448129 22.62176495 32.3125 24.3125 C31.549375 24.539375 30.78625 24.76625 30 25 C28.24252386 20.49646738 27.80705592 16.82360189 28 12 C24.88089144 10.20724134 22.32317572 9.65709282 18.75 9.375 C17.1825 9.25125 15.615 9.1275 14 9 C14 12.3 14 15.6 14 19 C13.01 19.33 12.02 19.66 11 20 C11 20.99 11 21.98 11 23 C11.33 23 11.66 23 12 23 C13.53332291 29.33773468 14.48446121 35.50149789 15 42 C19.51617599 42.07654536 23.59085217 42.10228696 28 41 C28.020625 39.741875 28.04125 38.48375 28.0625 37.1875 C28.07410156 36.47980469 28.08570313 35.77210938 28.09765625 35.04296875 C28.08263217 32.79694539 28.08263217 32.79694539 27 30 C29.16590481 28.68498637 30.50121292 27.96977048 33.0625 28.125 C35.63892378 29.28854622 36.50757398 30.61211837 38 33 C38.88994774 37.85863359 38.47558257 41.95371836 36.4375 46.4375 C32.66513152 50.40332327 29.28078246 51.82519092 23.90063477 52.23754883 C20.28332694 52.29498248 16.67946372 52.26147042 13.0625 52.1875 C11.80630859 52.17396484 10.55011719 52.16042969 9.25585938 52.14648438 C6.17012721 52.11128591 3.08528976 52.06204305 0 52 C0 49.03 0 46.06 0 43 C1.65 43 3.3 43 5 43 C5 31.78 5 20.56 5 9 C3.35 9 1.7 9 0 9 C0 6.03 0 3.06 0 0 Z " fill="#FCDE59" transform="translate(278,223)"/>
<path d="M0 0 C8.88888889 -0.35555556 8.88888889 -0.35555556 13.125 1 C15 3 15 3 15.25 6.75 C15.20617187 7.44738281 15.16234375 8.14476562 15.1171875 8.86328125 C14.94462445 12.00968078 15.37207905 14.92318732 16 18 C16.66 18.33 17.32 18.66 18 19 C16.68 19.99 15.36 20.98 14 22 C14.33 22.66 14.66 23.32 15 24 C15.45693563 29.36899365 15.45693563 29.36899365 13.6875 31.8125 C9.67489233 34.63618688 5.68713724 34.15119798 1 34 C-0.58637534 32.41362466 -0.27323157 30.63333312 -0.4375 28.4375 C-1.00306975 20.01961923 -1.00306975 20.01961923 -5 13 C-4.34 11.35 -3.68 9.7 -3 8 C-2.67 8.66 -2.34 9.32 -2 10 C-1.34 10 -0.68 10 0 10 C0 6.7 0 3.4 0 0 Z " fill="#F0DB5A" transform="translate(292,232)"/>
<path d="M0 0 C0.66 0 1.32 0 2 0 C2.71604361 5.60456475 3.42800779 11.20962713 4.13623047 16.81518555 C4.37762771 18.72125167 4.62013045 20.62717812 4.86376953 22.53295898 C5.21418764 25.27551704 5.56060038 28.01855615 5.90625 30.76171875 C6.0156189 31.61086349 6.12498779 32.46000824 6.2376709 33.33488464 C6.72717955 37.24910711 7.14060753 41.04541313 7 45 C2.25 47 2.25 47 0 47 C0 31.49 0 15.98 0 0 Z " fill="#48B66F" transform="translate(243,228)"/>
<path d="M0 0 C10.04995766 -0.48433531 10.04995766 -0.48433531 14.1875 1.625 C16 4 16 4 16.4375 7.0625 C16 10 16 10 14 13 C9.36297289 14.5456757 4.87528349 14.05735628 0 14 C0 9.38 0 4.76 0 0 Z " fill="#3FB470" transform="translate(199,232)"/>
<path d="M0 0 C0.99 0 1.98 0 3 0 C3.00808685 0.59246521 3.01617371 1.18493042 3.02450562 1.79534912 C3.1105396 7.9598137 3.21004284 14.1239563 3.31738281 20.28808594 C3.35567417 22.5888122 3.39052674 24.88959835 3.421875 27.19042969 C3.4675217 30.49696262 3.52551747 33.80308312 3.5859375 37.109375 C3.59748871 38.13867126 3.60903992 39.16796753 3.62094116 40.22845459 C3.64081085 41.18914856 3.66068054 42.14984253 3.68115234 43.13964844 C3.69447601 43.98348083 3.70779968 44.82731323 3.7215271 45.69671631 C4.0223118 48.18454361 4.75378638 49.84315599 6 52 C4.02 52 2.04 52 0 52 C0 34.84 0 17.68 0 0 Z " fill="#EDDB5B" transform="translate(233,223)"/>
<path d="M0 0 C7.97122862 -0.35692068 7.97122862 -0.35692068 12.0625 1.0625 C14 3 14 3 14.5 6.5625 C14.335 7.696875 14.17 8.83125 14 10 C9.43362969 13.04424687 5.43284541 12.12783166 0 12 C0 8.04 0 4.08 0 0 Z " fill="#3CB470" transform="translate(293,232)"/>
<path d="M0 0 C10.625 -0.25 10.625 -0.25 14 2 C14.40876538 5.20199548 14.61950801 7.14448894 12.6875 9.8125 C9.78320998 11.85625964 7.24904977 12.11883688 3.8125 12.0625 C1.9253125 12.0315625 1.9253125 12.0315625 0 12 C0 8.04 0 4.08 0 0 Z " fill="#43B56F" transform="translate(293,254)"/>
<path d="M0 0 C0.33 0 0.66 0 1 0 C1 4.62 1 9.24 1 14 C6.28 14 11.56 14 17 14 C16.01 14.495 16.01 14.495 15 15 C14.67 16.32 14.34 17.64 14 19 C10.04 18.67 6.08 18.34 2 18 C2 17.67 2 17.34 2 17 C4.64 17 7.28 17 10 17 C10 16.34 10 15.68 10 15 C6.37 15.33 2.74 15.66 -1 16 C-0.67 14.35 -0.34 12.7 0 11 C-1.65 11.33 -3.3 11.66 -5 12 C-4.54625 11.505 -4.0925 11.01 -3.625 10.5 C-1.41840633 7.10524051 -0.85608575 3.95116502 0 0 Z " fill="#FCDE5C" transform="translate(198,232)"/>
<path d="M0 0 C2.37928962 0.38583075 4.64287501 0.88479839 6.9375 1.625 C9.77743461 2.14135175 12.19608697 1.57352767 15 1 C12.77031528 3.56413743 11.32537096 4.40537135 8 5 C5.9023604 5.08120233 3.80231238 5.10755808 1.703125 5.09765625 C0.49785156 5.09443359 -0.70742188 5.09121094 -1.94921875 5.08789062 C-3.20347656 5.07951172 -4.45773437 5.07113281 -5.75 5.0625 C-7.01972656 5.05798828 -8.28945313 5.05347656 -9.59765625 5.04882812 C-12.73181836 5.03704556 -15.86588541 5.02059416 -19 5 C-18.34 4.01 -17.68 3.02 -17 2 C-14.25105838 1.64208017 -11.69382981 1.44205233 -8.9375 1.375 C-4.0805414 1.64922815 -4.0805414 1.64922815 0 0 Z " fill="#49B66D" transform="translate(297,218)"/>
<path d="M0 0 C4.2863443 -0.2521379 7.97109522 -0.35696696 12.0625 1.0625 C14 3 14 3 14.3125 6.6875 C14.1578125 8.3271875 14.1578125 8.3271875 14 10 C13.01 10.33 12.02 10.66 11 11 C11 10.34 11 9.68 11 9 C8.525 8.01 8.525 8.01 6 7 C6.66 5.02 7.32 3.04 8 1 C5.36 1 2.72 1 0 1 C0 0.67 0 0.34 0 0 Z " fill="#4EB76E" transform="translate(293,232)"/>
<path d="M0 0 C0.391875 0.53625 0.78375 1.0725 1.1875 1.625 C3.3755388 4.49208532 5.67879296 7.23964568 8 10 C5.33644766 10.39169887 3.60775627 10.40564529 1.33203125 8.88671875 C-0.1510888 7.63610683 -1.57954352 6.32135486 -3 5 C-2 3 -2 3 0 0 Z " fill="#5B20E4" transform="translate(148,307)"/>
<path d="M0 0 C0.33 0 0.66 0 1 0 C1 4.62 1 9.24 1 14 C0.67 13.01 0.34 12.02 0 11 C-1.65 11.33 -3.3 11.66 -5 12 C-4.54625 11.505 -4.0925 11.01 -3.625 10.5 C-1.41840633 7.10524051 -0.85608575 3.95116502 0 0 Z " fill="#D2D360" transform="translate(198,232)"/>
<path d="M0 0 C-0.598125 0.2475 -1.19625 0.495 -1.8125 0.75 C-4.28647521 2.16370012 -5.43370255 3.65055383 -7 6 C-8.65 5.67 -10.3 5.34 -12 5 C-3.89473684 -1.94736842 -3.89473684 -1.94736842 0 0 Z " fill="#3DA978" transform="translate(164,174)"/>
<path d="M0 0 C4.03384128 2.07143201 5.92856799 3.96615872 8 8 C7.34 8 6.68 8 6 8 C6 7.34 6 6.68 6 6 C5.38125 5.87625 4.7625 5.7525 4.125 5.625 C2 5 2 5 0 3 C0 2.01 0 1.02 0 0 Z M1 6 C3 7 3 7 3 7 Z " fill="#EBDB5D" transform="translate(216,224)"/>
<path d="M0 0 C0.33 1.32 0.66 2.64 1 4 C-0.98 4.99 -0.98 4.99 -3 6 C-3.99 5.34 -4.98 4.68 -6 4 C-4.35 3.67 -2.7 3.34 -1 3 C-0.67 2.01 -0.34 1.02 0 0 Z " fill="#ECDA5C" transform="translate(307,261)"/>
</svg>
