<?xml version="1.0" encoding="UTF-8"?>
<svg version="1.1" xmlns="http://www.w3.org/2000/svg" width="500" height="500">
<path d="M0 0 C165 0 330 0 500 0 C500 165 500 330 500 500 C335 500 170 500 0 500 C0 335 0 170 0 0 Z " fill="#000000" transform="translate(0,0)"/>
<path d="M0 0 C0.7313768 -0.00983917 1.4627536 -0.01967834 2.21629333 -0.02981567 C32.24902848 -0.34928548 64.54919694 1.00871654 87.7109375 22.73828125 C97.8840183 33.65392269 99.61264107 45.02625718 99.24609375 59.4453125 C98.42078299 73.58134549 90.84410906 85.45682863 80.9609375 95.30078125 C68.93267451 105.36566798 53.6177969 110.87542293 38.7734375 115.23828125 C39.84980469 115.65078125 40.92617188 116.06328125 42.03515625 116.48828125 C60.19870955 123.60075513 78.07262044 133.48957964 87.7734375 151.23828125 C89.3238968 154.84809293 90.61247335 158.48699385 91.7734375 162.23828125 C92.1034375 163.22828125 92.4334375 164.21828125 92.7734375 165.23828125 C94.1648671 180.47557585 89.78030487 195.96557277 80.55078125 208.1796875 C64.02790984 227.42582139 37.43168002 233.77815342 13 235.64453125 C7.26104315 235.99954709 1.52137517 236.12213735 -4.2265625 236.23828125 C-5.69841736 236.27604925 -7.17025909 236.31433114 -8.64208984 236.35302734 C-12.70562316 236.45594883 -16.76881437 236.5259783 -20.83331299 236.57730103 C-22.46248158 236.60117066 -24.09155289 236.6331345 -25.72039795 236.6734314 C-28.02626865 236.72744986 -30.33029856 236.7484825 -32.63671875 236.76171875 C-33.32855759 236.78433273 -34.02039642 236.80694672 -34.73320007 236.83024597 C-38.55463603 236.81381981 -40.13712906 236.30851341 -43.1796875 233.91918945 C-45.90374005 230.35134343 -45.63492863 228.46229398 -45.1640625 224.05078125 C-45.04933594 222.81972656 -44.93460937 221.58867187 -44.81640625 220.3203125 C-44.43102065 217.34660379 -43.87471056 214.43473497 -43.26171875 211.5 C-42.07996878 205.78211888 -41.39599799 200.03515124 -40.7265625 194.23828125 C-39.96943508 187.68205698 -39.06969514 181.25197731 -37.71289062 174.79296875 C-36.796145 169.97729292 -36.28867616 165.10581493 -35.7265625 160.23828125 C-34.96943508 153.68205698 -34.06969514 147.25197731 -32.71289062 140.79296875 C-31.796145 135.97729292 -31.28867616 131.10581493 -30.7265625 126.23828125 C-29.96675872 119.65888147 -29.06883113 113.20035767 -27.70849609 106.71777344 C-26.84916054 102.29659214 -26.33714713 97.83180562 -25.7890625 93.36328125 C-24.18310186 80.70093844 -22.35206751 68.08435251 -20.2890625 55.48828125 C-20.12591553 54.48877441 -19.96276855 53.48926758 -19.79467773 52.45947266 C-19.45734296 50.39376543 -19.11831019 48.32833478 -18.77758789 46.26318359 C-17.80306698 40.23895636 -16.95303775 34.21083046 -16.22265625 28.15234375 C-16.13895279 27.4720108 -16.05524933 26.79167786 -15.9690094 26.09072876 C-15.55847587 22.75360855 -15.16388482 19.41709122 -14.79711914 16.07470703 C-14.65008545 14.86540527 -14.50305176 13.65610352 -14.3515625 12.41015625 C-14.23039062 11.33862305 -14.10921875 10.26708984 -13.984375 9.16308594 C-13.08428651 5.68916195 -11.67358392 3.83068179 -9.2265625 1.23828125 C-6.2680284 -0.2409858 -3.24637618 0.03512067 0 0 Z " fill="#FBFBFB" transform="translate(372.2265625,91.76171875)"/>
<path d="M0 0 C1.08023438 -0.011521 2.16046875 -0.02304199 3.2734375 -0.03491211 C4.43875 -0.02468018 5.6040625 -0.01444824 6.8046875 -0.00390625 C8.00867188 0.00439209 9.21265625 0.01269043 10.453125 0.02124023 C38.08518196 0.52886367 67.08916125 6.66383371 87.6796875 26.43359375 C96.97019976 37.45381751 101.08463902 49.45568968 100.9296875 63.74609375 C100.92001953 64.6796167 100.91035156 65.61313965 100.90039062 66.57495117 C100.58921409 84.3944757 94.47928727 99.6543431 81.6796875 112.43359375 C55.18977829 136.10049074 17.8116294 141.35109995 -16.3203125 140.43359375 C-16.39057144 140.9841745 -16.46083038 141.53475525 -16.53321838 142.10202026 C-18.24751939 155.40550394 -20.29819586 168.6054124 -22.74487305 181.79345703 C-23.25890937 184.5645067 -23.76580343 187.33678958 -24.27148438 190.109375 C-25.10117755 194.64601751 -25.95413924 199.17794106 -26.81317139 203.70910645 C-27.33616479 206.51875618 -27.83151096 209.33244118 -28.32470703 212.14746094 C-28.65733051 213.969501 -28.99048098 215.79144496 -29.32421875 217.61328125 C-29.46576889 218.45762726 -29.60731903 219.30197327 -29.75315857 220.17190552 C-30.83827651 225.94183691 -30.83827651 225.94183691 -33.31787109 228.47143555 C-36.77067619 230.13048272 -39.74238975 229.51988452 -43.3203125 228.43359375 C-45.3203125 226.93359375 -45.3203125 226.93359375 -46.3203125 224.43359375 C-46.77961638 218.37318564 -46.04489472 212.51940467 -45 206.5625 C-44.86103302 205.73587357 -44.72206604 204.90924713 -44.57888794 204.05757141 C-44.1249261 201.36912661 -43.66033494 198.6826455 -43.1953125 195.99609375 C-42.87317262 194.10376773 -42.55156499 192.21135104 -42.23046875 190.31884766 C-41.27212997 184.68838293 -40.29903761 179.06054713 -39.3203125 173.43359375 C-39.18306763 172.64422424 -39.04582275 171.85485474 -38.90441895 171.04156494 C-37.44675921 162.66876559 -35.96512083 154.30031188 -34.47462463 145.93330383 C-33.07558598 138.07256957 -31.700345 130.20768984 -30.32574463 122.34265137 C-29.88136652 119.80032113 -29.43658242 117.25806221 -28.99169922 114.71582031 C-27.67650341 107.19890134 -26.36291921 99.6817086 -25.0546875 92.16357422 C-23.15575509 81.251368 -21.24455103 70.34136664 -19.3203125 59.43359375 C-19.13494934 58.38244385 -18.94958618 57.33129395 -18.75860596 56.24829102 C-17.54934549 49.39619022 -16.33368497 42.5452615 -15.11126709 35.69549561 C-14.7116519 33.45264677 -14.31355951 31.20952603 -13.91705322 28.96612549 C-13.36179112 25.82688779 -12.80075436 22.68873382 -12.23828125 19.55078125 C-12.0739711 18.61510315 -11.90966095 17.67942505 -11.7403717 16.71539307 C-9.69645164 5.4011036 -9.69645164 5.4011036 -7.02783203 1.58569336 C-4.63343119 -0.02985962 -2.87674831 0.0293249 0 0 Z " fill="#FAFAFA" transform="translate(58.3203125,96.56640625)"/>
<path d="M0 0 C4.13222947 1.01493355 4.98007051 1.56036585 7.5625 4.875 C9.07141384 8.21200309 10.21008752 11.65551414 11.36328125 15.12890625 C11.71618225 16.16000519 12.06908325 17.19110413 12.43267822 18.25344849 C13.59081831 21.64459366 14.7327183 25.04098386 15.875 28.4375 C16.68288365 30.81073877 17.49206153 33.18353733 18.30249023 35.5559082 C19.94763443 40.37399235 21.58783813 45.19371387 23.22460938 50.01464844 C26.17539825 58.69136569 29.19395067 67.34390732 32.22479248 75.99291992 C33.74424339 80.33008742 35.25894066 84.66891306 36.7734375 89.0078125 C37.07734406 89.87831238 37.38125061 90.74881226 37.69436646 91.64569092 C40.0888082 98.50817615 42.47193102 105.37455411 44.8515625 112.2421875 C45.21445374 113.28938461 45.57734497 114.33658173 45.95123291 115.41551208 C47.41159196 119.63015749 48.87179267 123.84485714 50.33081055 128.05996704 C53.95445069 138.52756001 57.58934664 148.99032886 61.3046875 159.42578125 C61.59167007 160.23292068 61.87865265 161.04006012 62.17433167 161.87165833 C63.49666505 165.58877663 64.82407627 169.30393346 66.16088867 173.01586914 C66.61912663 174.29958883 67.07722523 175.58335828 67.53515625 176.8671875 C67.92968994 177.96401855 68.32422363 179.06084961 68.73071289 180.19091797 C69.5625 182.875 69.5625 182.875 69.5625 185.875 C70.2225 185.875 70.8825 185.875 71.5625 185.875 C71.61497391 185.06898346 71.66744781 184.26296692 71.72151184 183.43252563 C72.24095339 176.03395226 73.07098596 168.7788041 74.26171875 161.4609375 C74.62355726 159.17295792 74.98467733 156.88486464 75.34521484 154.59667969 C75.54080994 153.36236206 75.73640503 152.12804443 75.93792725 150.85632324 C76.9792284 144.2488339 77.96972182 137.63352742 78.96724129 131.01931763 C79.58546842 126.92183146 80.20605399 122.82470245 80.82641602 118.72753906 C80.95248073 117.8947216 81.07854544 117.06190414 81.20843029 116.20384979 C85.19810205 89.84910319 89.18996619 63.4958227 93.41918945 37.17822266 C93.54315598 36.40592316 93.6671225 35.63362366 93.79484558 34.83792114 C94.03329308 33.36289512 94.27454981 31.8883197 94.51899719 30.41427612 C95.16108894 26.51915479 95.73334358 22.62501436 96.23388672 18.70898438 C96.35106552 17.84698425 96.46824432 16.98498413 96.588974 16.09686279 C96.81197207 14.44680546 97.01877295 12.79444362 97.20606995 11.13995361 C97.93499264 5.90836727 99.20670646 3.2326337 103.5625 -0.125 C107.33673997 -0.83267 108.93526771 -0.50342382 112.22192383 1.47949219 C114.5625 3.875 114.5625 3.875 115.12768555 7.06347656 C115.0894165 8.28518555 115.05114746 9.50689453 115.01171875 10.765625 C114.99276047 11.42846497 114.97380219 12.09130493 114.95426941 12.77423096 C114.68698161 19.48642414 113.61058323 26.02962023 112.375 32.625 C111.90895678 35.2533173 111.44601296 37.88196222 110.98828125 40.51171875 C110.86949615 41.18907578 110.75071106 41.8664328 110.62832642 42.5643158 C109.25318497 50.49534651 108.16463889 58.46488348 107.0625 66.4375 C105.38553965 78.50320407 103.51944836 90.50920976 101.34960938 102.49829102 C100.18437905 108.99543758 99.17062527 115.49889687 98.2578125 122.03515625 C96.92605249 131.55081058 95.4640456 141.04413487 93.96875 150.53515625 C93.85199543 151.27649811 93.73524086 152.01783997 93.61494827 152.78164673 C92.88901645 157.38820141 92.1609667 161.99441955 91.43218994 166.6005249 C90.5756808 172.0149014 89.72068385 177.42951612 88.86694336 182.84432983 C88.39825595 185.81681505 87.92751913 188.78896516 87.45532227 191.76089478 C86.4751012 197.94617941 85.51070327 204.13118824 84.65625 210.33544922 C84.52593384 211.26876572 84.39561768 212.20208221 84.26135254 213.16368103 C84.03509254 214.80911196 83.8178825 216.45583085 83.6126709 218.10401917 C82.87037796 223.49122323 81.40613652 227.03136348 77.5625 230.875 C74.25 231.375 74.25 231.375 70.5625 230.875 C66.08527262 226.46912113 64.21321048 222.08452202 62.3203125 216.17578125 C62.03577713 215.32607758 61.75124176 214.4763739 61.45808411 213.60092163 C60.84469374 211.76432391 60.23735459 209.92569629 59.63546753 208.08529663 C58.33206525 204.1009885 56.99858881 200.1269252 55.66764832 196.15174866 C54.97663092 194.08630591 54.28720448 192.02033024 53.59931946 189.95384216 C50.32584755 180.12374117 46.92788255 170.33961274 43.5 160.5625 C42.89753668 158.84014678 42.29524477 157.11773361 41.69311523 155.39526367 C40.39321804 151.67745299 39.09241722 147.95996011 37.79101562 144.24267578 C33.99796862 133.4067222 30.21214845 122.56824104 26.42634678 111.72975445 C25.23844304 108.3289881 24.05025332 104.92832231 22.86129761 101.52792358 C19.98252885 93.29467478 17.10865188 85.05974108 14.24089813 76.82264709 C13.53607995 74.79914936 12.83037555 72.77596211 12.12457275 70.75280762 C10.9370495 67.3477754 9.75294398 63.94157134 8.57120705 60.53452682 C8.12322104 59.24448401 7.67417854 57.95480755 7.22403526 56.6655159 C6.60454502 54.89048785 5.98929616 53.11398124 5.37426758 51.33740234 C5.02334549 50.32785492 4.6724234 49.3183075 4.31086731 48.27816772 C3.5625 45.875 3.5625 45.875 3.5625 43.875 C2.9025 43.875 2.2425 43.875 1.5625 43.875 C1.52108383 44.55063995 1.47966766 45.22627991 1.43699646 45.9223938 C0.80232872 54.81869189 -0.58923559 63.52541271 -2.08984375 72.3046875 C-2.35314649 73.86817481 -2.61595908 75.43174473 -2.87831116 76.99539185 C-3.56542535 81.08411665 -4.25810101 85.17187762 -4.95233154 89.25939941 C-6.06076729 95.79092707 -7.16090854 102.32385502 -8.26049995 108.85687637 C-8.64080262 111.11127281 -9.02367041 113.36522108 -9.40696716 115.61911011 C-10.70614243 123.28961371 -11.90597176 130.96661267 -12.98280334 138.67205811 C-13.6495517 143.36871952 -14.40473142 148.04932514 -15.171875 152.73046875 C-15.33034409 153.70456192 -15.48881317 154.67865509 -15.65208435 155.68226624 C-17.05073668 164.2657478 -18.46956891 172.84592696 -19.88935852 181.42593384 C-20.86290118 187.32527182 -21.81215282 193.22737797 -22.72488403 199.13642883 C-23.22865761 202.38503701 -23.7475012 205.63112318 -24.26940918 208.87686157 C-24.50442519 210.3626944 -24.7323407 211.84966963 -24.95275879 213.33773804 C-25.25600297 215.37962683 -25.58395668 217.41607825 -25.91796875 219.453125 C-26.17936646 221.14550293 -26.17936646 221.14550293 -26.44604492 222.87207031 C-27.68569597 226.6267386 -29.40986087 228.37853063 -32.4375 230.875 C-36.40378159 231.70130866 -37.88765775 231.22163968 -41.3125 229.0625 C-47.3215799 220.04888015 -41.90123631 204.24147356 -40.1875 194.1875 C-39.83174689 192.0587363 -39.47687665 189.9298249 -39.12280273 187.80078125 C-38.33742106 183.08849122 -37.54651079 178.37717299 -36.75146484 173.66650391 C-34.5763407 160.77842553 -32.42435674 147.88646536 -30.27163696 134.99462891 C-29.75637174 131.90908865 -29.24052553 128.82364636 -28.72421265 125.73828125 C-25.21058805 104.73720843 -21.7952952 83.72404415 -18.5 62.6875 C-13.4293683 30.38361897 -13.4293683 30.38361897 -11.5625 19.1875 C-11.38340088 18.07157471 -11.20430176 16.95564941 -11.01977539 15.8059082 C-10.15218525 10.71331541 -9.28016217 6.29612534 -6.4375 1.875 C-3.4375 -0.125 -3.4375 -0.125 0 0 Z " fill="#FAFAFA" transform="translate(204.4375,95.125)"/>
<path d="M0 0 C28.84862824 2.24759231 62.43577131 10.94158402 83.046875 32.59765625 C89.46516907 40.49215796 89.92080489 49.13260937 89 59 C87.2316212 69.3472082 81.80143296 78.46860994 73.7109375 85.12109375 C48.934771 102.29304777 14.72644185 100.21534064 -14 100 C-14.22270786 94.20959569 -13.58657155 88.9206513 -12.5703125 83.22119141 C-11.59772727 77.72791675 -10.81289482 72.20627526 -10 66.6875 C-9.82484863 65.50486572 -9.64969727 64.32223145 -9.46923828 63.10375977 C-8.40035254 55.84719108 -7.38297032 48.58937986 -6.4921875 41.30859375 C-6.10033874 38.6744993 -5.62206998 36.11560844 -5.078125 33.51171875 C-3.71543995 26.84335351 -2.81193357 20.11398145 -1.875 13.375 C-1.60236328 11.43947266 -1.60236328 11.43947266 -1.32421875 9.46484375 C-0.88023856 6.31024765 -0.4388937 3.15530708 0 0 Z " fill="#010101" transform="translate(359,212)"/>
<path d="M0 0 C15.02649039 0.56929874 28.9258605 1.39874299 43.25 6.3125 C44.07822266 6.59625488 44.90644531 6.88000977 45.75976562 7.17236328 C59.56389813 12.13511995 70.43039721 19.54901666 77 33 C81.54576361 43.95115778 79.19348188 57.13591218 75.375 68 C69.06483206 82.91920747 55.50570875 91.96395649 41.125 98.0625 C21.7053917 105.74346481 2.66082024 107.20869515 -18 107 C-18.19547997 100.75233358 -17.47623129 95.06358317 -16.3125 88.93359375 C-16.13424683 87.96144424 -15.95599365 86.98929474 -15.77233887 85.98768616 C-15.38775132 83.89325855 -15.00007937 81.79939541 -14.60961914 79.70605469 C-13.56930179 74.12825385 -12.55079007 68.54647349 -11.53125 62.96484375 C-11.32133423 61.81837372 -11.11141846 60.67190369 -10.8951416 59.49069214 C-8.27762979 45.13636463 -5.87284901 30.74590941 -3.4765625 16.35327148 C-3.16145983 14.4750974 -2.84635575 12.59692356 -2.53125 10.71875 C-2.38997681 9.85967545 -2.24870361 9.00060089 -2.10314941 8.11549377 C-1.1128013 2.2256026 -1.1128013 2.2256026 0 0 Z " fill="#010101" transform="translate(64,113)"/>
<path d="M0 0 C19.88367238 -0.14557905 19.88367238 -0.14557905 27.5625 0.75 C28.34149658 0.83942871 29.12049316 0.92885742 29.9230957 1.02099609 C45.57961542 2.96320931 64.89810444 6.53922801 75.73828125 19.171875 C81.39584476 27.3692116 82.20403191 35.1370181 80.4921875 44.89453125 C77.87970705 55.62972391 73.13573823 63.62388477 64 70 C40.72884043 84.01908683 14.70379389 87.29421927 -12 87 C-11.47814242 77.48236151 -10.19826624 68.22305099 -8.64508057 58.83013916 C-7.96096526 54.68708277 -7.2957239 50.54102647 -6.6328125 46.39453125 C-6.49684662 45.54429382 -6.36088074 44.6940564 -6.22079468 43.8180542 C-4.73311229 34.43754052 -3.41493603 25.03445668 -2.125 15.625 C-2.01595337 14.83012177 -1.90690674 14.03524353 -1.79455566 13.21627808 C-1.19135492 8.81152452 -0.59326723 4.40610414 0 0 Z " fill="#010101" transform="translate(374,108)"/>
</svg>
